<svg xmlns="http://www.w3.org/2000/svg" xml:space="preserve" width="320.08646" height="320.08975" viewBox="0 0 320.08645 320.08975"><g style="stroke-width:.5454"><g style="stroke-width:.403645"><path d="M0 0c0-21.791-17.665-39.456-39.456-39.456-21.79 0-39.455 17.665-39.455 39.456s17.665 39.456 39.455 39.456C-17.665 39.456 0 21.791 0 0" style="fill:#fff;fill-opacity:1;fill-rule:nonzero;stroke:none;stroke-width:.403645" transform="matrix(3.30323 0 0 -3.30323 287.92 160.302)"/></g><g style="stroke-width:.403645"><path d="M0 0c-26.197 0-47.432-21.236-47.432-47.432S-26.197-94.864 0-94.864c26.196 0 47.432 21.236 47.432 47.432S26.196 0 0 0m31.979-52.893C29.382-68.21 16.057-79.876 0-79.876S-29.381-68.21-31.979-52.893h7.344v10.795h-7.366C-29.457-26.718-16.102-14.987 0-14.987s29.457-11.731 32.002-27.111h-7.366v-10.795z" style="fill:#fff;fill-opacity:1;fill-rule:nonzero;stroke:none;stroke-width:.403645" transform="matrix(3.30323 0 0 -3.30323 160.042 3.366)"/></g><g style="stroke-width:.403645"><path d="M0 0c26.196 0 47.432-21.236 47.432-47.432S26.196-94.864 0-94.864s-47.432 21.236-47.432 47.432S-26.197 0 0 0m-32.001-42.098h7.366v-10.795h-7.344C-29.381-68.21-16.057-79.876 0-79.876S29.382-68.21 31.979-52.893h-7.343v10.795h7.366C29.457-26.718 16.101-14.987 0-14.987s-29.457-11.731-32.001-27.111M0 1.019c-12.942 0-25.109-5.04-34.26-14.191s-14.19-21.319-14.19-34.26c0-12.942 5.039-25.109 14.19-34.26S-12.942-95.883 0-95.883s25.108 5.04 34.26 14.191 14.191 21.318 14.191 34.26-5.04 25.109-14.191 34.26S12.941 1.019 0 1.019M-30.777-41.08C-27.797-26.479-15.04-16.005 0-16.005S27.796-26.479 30.778-41.08h-7.16v-12.831h7.132C27.719-68.438 14.975-78.858 0-78.858s-27.718 10.42-30.75 24.947h7.133v12.831h-1.018z" style="fill:#00467e;fill-opacity:1;fill-rule:nonzero;stroke:none;stroke-width:.403645" transform="matrix(3.30323 0 0 -3.30323 160.042 3.366)"/></g><g style="stroke-width:.403645"><path d="M0 0a2.208 2.208 0 1 0-4.416 0A2.208 2.208 0 0 0 0 0" style="fill:#00467e;fill-opacity:1;fill-rule:nonzero;stroke:none;stroke-width:.403645" transform="matrix(3.30323 0 0 -3.30323 36.786 160.415)"/></g><g style="stroke-width:.403645"><path d="M0 0a2.209 2.209 0 1 0-4.418.002A2.209 2.209 0 0 0 0 0" style="fill:#00467e;fill-opacity:1;fill-rule:nonzero;stroke:none;stroke-width:.403645" transform="matrix(3.30323 0 0 -3.30323 297.89 160.415)"/></g><path d="M258.086 269.762h10.321v15.128h-10.321zM235.241 269.762h10.325v15.128H235.24z" style="fill:#00467e;fill-opacity:1;fill-rule:nonzero;stroke:none;stroke-width:.545399" transform="matrix(2.44469 0 0 -2.44469 -454.713 895.03)"/><path d="M246.767 273.312h10.324v15.13h-10.324z" style="fill:#ad0d53;fill-opacity:1;fill-rule:nonzero;stroke:none;stroke-width:.545399" transform="matrix(2.44469 0 0 -2.44469 -454.713 895.03)"/><g style="stroke-width:.403645"><path d="M0 0h-.076q.016.092.016.14a.5.5 0 0 1-.016.117Q.058.28.128.294l.716.143q.262.053.514.107L.213.778A6 6 0 0 1-.076.83q.015.074.016.112a1 1 0 0 1-.016.122H0l.013-.024Q.049.964.065.955A.4.4 0 0 1 .196.941h.015L.617.938q.764 0 .927.003a.2.2 0 0 1 .052.009q.016.008.055.093l.011.021h.074A1 1 0 0 1 1.722.89q0-.077.014-.182h-.074l-.018.033a.3.3 0 0 1-.041.077.1.1 0 0 1-.034.013 3 3 0 0 1-.207.004H.246A124 124 0 0 1 1.722.538V.506A76 76 0 0 1 .246.205l1.191.007q.142 0 .162.01t.05.083l.013.025h.074a1 1 0 0 1-.014-.154q0-.058.014-.155h-.074l-.013.024q-.034.071-.058.081a.7.7 0 0 1-.174.014L1.13.143Q.735.147.366.146H.21A1 1 0 0 1 .094.14Q.069.134.059.124A.3.3 0 0 1 .014.03z" style="fill:#fff;fill-opacity:1;fill-rule:nonzero;stroke:none;stroke-width:.403645" transform="matrix(3.30323 0 0 -3.30323 166.729 226.857)"/></g><g style="stroke-width:.403645"><path d="M0 0v.133q0 .078-.01.092t-.04.023a2 2 0 0 1-.171.021l-.044.005v.035Q-.053.303.061.303q.118 0 .323.006V.274L.178.254Q.146.248.134.234.12.222.12.152V.001l.751.004v.23L.87.255q0 .048-.009.059a.12.12 0 0 1-.056.037Q.767.367.586.41L.533.424v.037l.478-.067A5 5 0 0 1 .997.029q0-.115.014-.255H.936l-.044.088q-.013.023-.028.026a.4.4 0 0 1-.101.009H.74l-.3.002L.098-.1l-.541-.001a3 3 0 0 1-.194-.005.1.1 0 0 1-.025-.011q-.01-.006-.032-.05l-.031-.059h-.076q.016.104.016.246 0 .078-.016.373.22.001.436.013V.367A3 3 0 0 1-.592.332.13.13 0 0 1-.644.309Q-.659.289-.66.228V.005l.409-.004z" style="fill:#fff;fill-opacity:1;fill-rule:nonzero;stroke:none;stroke-width:.403645" transform="matrix(3.30323 0 0 -3.30323 169.124 222.55)"/></g><g style="stroke-width:.403645"><path d="M0 0h.075q.01-.019.014-.028.03-.072.057-.084a.4.4 0 0 1 .115-.011h.046l.512-.002.746.001q.09 0 .113.011.026.012.042.077l.017.037h.075a1.13 1.13 0 0 1 0-.355h-.075l-.012.023q-.03.077-.054.088a.4.4 0 0 1-.127.013L1.48-.232l-.468.003q-.724 0-.801-.003a.2.2 0 0 1-.065-.013Q.124-.254.092-.327L.075-.354H0q.015.117.015.185Q.015-.094 0 0" style="fill:#fff;fill-opacity:1;fill-rule:nonzero;stroke:none;stroke-width:.403645" transform="matrix(3.30323 0 0 -3.30323 166.48 219.724)"/></g><g style="stroke-width:.403645"><path d="M0 0v-.041q-.165-.014-.24-.032a.3.3 0 0 1-.119-.055q-.042-.038-.042-.083 0-.066.083-.104a.5.5 0 0 1 .205-.039q.108 0 .185.031a.7.7 0 0 1 .201.153q.121.12.25.165a1.05 1.05 0 0 0 .563.01.5.5 0 0 0 .201-.097q.074-.066.074-.142a.3.3 0 0 0-.022-.103.7.7 0 0 0-.08-.125q-.179.008-.476.008v.043q.191.019.268.037.075.02.125.059.048.04.049.086 0 .065-.084.114a.5.5 0 0 1-.237.048.6.6 0 0 1-.22-.035.6.6 0 0 1-.213-.153.7.7 0 0 0-.229-.16.8.8 0 0 0-.26-.039 1 1 0 0 0-.251.032.5.5 0 0 0-.189.095q-.07.063-.07.131 0 .081.089.196l.227-.002z" style="fill:#fff;fill-opacity:1;fill-rule:nonzero;stroke:none;stroke-width:.403645" transform="matrix(3.30323 0 0 -3.30323 168.095 218.015)"/></g><g style="stroke-width:.403645"><path d="M0 0v-.042q-.221.01-.497.018.014.244.015.346 0 .086-.015.315.284.006.497.015V.611A5 5 0 0 1-.275.577.1.1 0 0 1-.333.556Q-.35.541-.35.482V.36a64 64 0 0 1 1.47 0 .2.2 0 0 1 .054.008q.017.01.055.092a.1.1 0 0 0 .011.022h.074A1.4 1.4 0 0 1 1.3.288q0-.08.014-.165H1.24l-.016.029q-.03.076-.048.087l-.03.008A91.16 91.16 0 0 1-.346.251V.097q0-.032.015-.041A.3.3 0 0 1-.239.027Q-.185.019 0 0" style="fill:#fff;fill-opacity:1;fill-rule:nonzero;stroke:none;stroke-width:.403645" transform="matrix(3.30323 0 0 -3.30323 168.122 217.58)"/></g><g style="stroke-width:.403645"><path d="M0 0v.134q0 .078-.01.092a.1.1 0 0 1-.04.021 2 2 0 0 1-.171.022l-.044.004V.31a9 9 0 0 1 .649 0V.273A4 4 0 0 1 .178.254Q.146.249.134.234.12.222.12.151V.002l.751.003v.229L.87.256q0 .045-.009.058a.14.14 0 0 1-.056.038A3 3 0 0 1 .586.41L.533.424v.037q.043-.005.478-.067A5 5 0 0 1 .997.028q0-.115.014-.255H.936l-.044.089q-.013.022-.028.027a.4.4 0 0 1-.101.007H.74l-.3.003L.098-.1l-.541-.001a3 3 0 0 1-.194-.005.1.1 0 0 1-.025-.01q-.01-.007-.032-.051l-.031-.059h-.076q.016.104.016.247 0 .077-.016.372.22 0 .436.013V.367A3 3 0 0 1-.592.333.2.2 0 0 1-.644.309Q-.659.291-.66.229V.005l.409-.004z" style="fill:#fff;fill-opacity:1;fill-rule:nonzero;stroke:none;stroke-width:.403645" transform="matrix(3.30323 0 0 -3.30323 169.124 214.644)"/></g><g style="stroke-width:.403645"><path d="M0 0h-.076q.016.147.016.233a1.4 1.4 0 0 1-.009.175q0 .107.117.161.12.053.321.054.135 0 .239-.024A.6.6 0 0 0 .784.528a.3.3 0 0 0 .09-.094l.555.182q.104.034.122.042a.2.2 0 0 1 .046.036q.028.031.065.104h.074a1 1 0 0 1-.013-.126q0-.045.013-.094-.095-.025-.239-.066Q1.351.469 1.325.46L1.292.449.906.328A.4.4 0 0 0 .89.23l.644.004a.2.2 0 0 1 .058.01q.026.014.054.083.004.01.016.03h.074a1 1 0 0 1-.014-.174q0-.083.014-.183h-.074l-.011.023q-.035.079-.056.089a.2.2 0 0 1-.081.013L.857.128l-.6-.002A2 2 0 0 1 .098.122a.05.05 0 0 1-.03-.011.2.2 0 0 1-.056-.085zm.781.23q.015.058.015.088-.001.1-.104.149a.7.7 0 0 1-.287.048A.7.7 0 0 1 .15.472Q.057.428.056.349q0-.031.016-.116Z" style="fill:#fff;fill-opacity:1;fill-rule:nonzero;stroke:none;stroke-width:.403645" transform="matrix(3.30323 0 0 -3.30323 166.729 213.018)"/></g><g style="stroke-width:.403645"><path d="M0 0v-.042q-.165-.015-.24-.033a.26.26 0 0 1-.119-.056.1.1 0 0 1-.042-.083q0-.064.083-.103a.5.5 0 0 1 .205-.038q.108-.001.185.031.08.029.201.151a.65.65 0 0 0 .25.166 1.098 1.098 0 0 0 .563.011.5.5 0 0 0 .201-.099q.074-.066.074-.141a.3.3 0 0 0-.022-.104 1 1 0 0 0-.08-.124 9 9 0 0 1-.476.009v.042q.191.018.268.038.075.019.125.059.048.038.049.086 0 .065-.084.113a.46.46 0 0 1-.237.049.6.6 0 0 1-.22-.036.65.65 0 0 1-.213-.154.6.6 0 0 0-.229-.157.8.8 0 0 0-.26-.041 1 1 0 0 0-.251.032.5.5 0 0 0-.189.096q-.07.063-.07.131 0 .08.089.197.19-.005.227-.005.078 0 .212.005" style="fill:#fff;fill-opacity:1;fill-rule:nonzero;stroke:none;stroke-width:.403645" transform="matrix(3.30323 0 0 -3.30323 168.095 207.944)"/></g><g style="stroke-width:.403645"><path d="m0 0 .098.023a.8.8 0 0 0 .189-.169.3.3 0 0 0 .061-.167q0-.111-.117-.202A.8.8 0 0 0-.1-.649a2 2 0 0 0-.474-.047q-.427 0-.696.119-.272.118-.272.314 0 .121.116.271l.168-.002a7 7 0 0 1 .342.009v-.047a2 2 0 0 1-.307-.043.3.3 0 0 1-.133-.075.17.17 0 0 1-.051-.126q.001-.162.263-.242.206-.062.516-.062.37 0 .585.088.213.089.213.231 0 .06-.036.119A.8.8 0 0 1 0 0" style="fill:#fff;fill-opacity:1;fill-rule:nonzero;stroke:none;stroke-width:.403645" transform="matrix(3.30323 0 0 -3.30323 171.443 205.257)"/></g><g style="stroke-width:.403645"><path d="m0 0-.092-.001h-.274l-.239-.002a.2.2 0 0 1-.067-.006q-.022-.009-.033-.043l-.038-.074h-.076q.016.126.016.183 0 .062-.016.171h.076A1 1 0 0 1-.688.126.1.1 0 0 1-.664.111 1 1 0 0 1-.522.104L.135.103.74.104h.035q.062 0 .078.012Q.88.13.919.229h.075A3 3 0 0 1 .979.038q0-.068.015-.164H.919l-.053.1a.1.1 0 0 1-.024.014.4.4 0 0 1-.102.009l-.602.002a7 7 0 0 1 0-.396l.619.001a.3.3 0 0 1 .085.005.1.1 0 0 1 .033.029l.044.09h.075a2 2 0 0 1-.015-.189q0-.069.015-.166H.919q-.03.059-.043.087-.01.022-.025.028a.3.3 0 0 1-.091.009l-.699.001-.632-.002h-.041a.2.2 0 0 1-.061-.007.05.05 0 0 1-.03-.026l-.04-.091h-.076q.016.11.016.185 0 .078-.016.172h.076l.042-.093a.05.05 0 0 1 .029-.024.2.2 0 0 1 .065-.008L0-.397A5 5 0 0 1 0 0" style="fill:#fff;fill-opacity:1;fill-rule:nonzero;stroke:none;stroke-width:.403645" transform="matrix(3.30323 0 0 -3.30323 169.182 203.012)"/></g><g style="stroke-width:.403645"><path d="M0 0a1.8 1.8 0 0 0-.688.116q-.268.117-.268.298 0 .17.238.271.238.1.653.101.464 0 .73-.114Q.933.56.933.375.933.201.69.101.448.001 0 0m-.035.121Q.385.12.596.2q.212.078.212.2 0 .08-.099.143a.8.8 0 0 1-.288.094 2.5 2.5 0 0 1-.419.032q-.287 0-.477-.041a.8.8 0 0 1-.273-.1Q-.83.468-.83.393q0-.082.099-.147A.8.8 0 0 1-.44.151a2.5 2.5 0 0 1 .405-.03" style="fill:#fff;fill-opacity:1;fill-rule:nonzero;stroke:none;stroke-width:.403645" transform="matrix(3.30323 0 0 -3.30323 169.51 202.115)"/></g><g style="stroke-width:.403645"><path d="M0 0a1.8 1.8 0 0 0-.688.116q-.268.116-.268.298 0 .17.238.271.238.1.653.101.464 0 .73-.114Q.933.559.933.375.933.201.69.101.448.001 0 0m-.035.121q.42 0 .631.078.212.08.212.201 0 .08-.099.143a.8.8 0 0 1-.288.093 2.4 2.4 0 0 1-.419.032q-.287.001-.477-.04a.7.7 0 0 1-.273-.1Q-.83.468-.83.393q0-.083.099-.147A.8.8 0 0 1-.44.15 2.6 2.6 0 0 1-.035.121" style="fill:#fff;fill-opacity:1;fill-rule:nonzero;stroke:none;stroke-width:.403645" transform="matrix(3.30323 0 0 -3.30323 169.51 199.276)"/></g><g style="stroke-width:.403645"><path d="M0 0h-.076q.016.134.016.182 0 .03-.016.19H0A1 1 0 0 1 .052.256Q.06.244.079.239A.4.4 0 0 1 .19.229l.946-.001.454.001v.244q0 .055-.016.07-.014.018-.068.035a4 4 0 0 1-.263.066v.047l.285-.045q.08-.01.208-.027a7 7 0 0 1-.014-.396q0-.12.014-.222h-.074a1 1 0 0 1-.049.098.1.1 0 0 1-.036.02q-.022.005-.135.005L.659.126.154.125A.3.3 0 0 1 .072.117Q.047.104.017.035A.2.2 0 0 0 0 0" style="fill:#fff;fill-opacity:1;fill-rule:nonzero;stroke:none;stroke-width:.403645" transform="matrix(3.30323 0 0 -3.30323 166.729 196.53)"/></g><g style="stroke-width:.403645"><path d="M0 0a.83.83 0 0 1-.502-.384.77.77 0 0 1-.083-.627.77.77 0 0 1 .396-.482.83.83 0 0 1 .63-.067.84.84 0 0 1 .506.393.77.77 0 0 1 .077.618.78.78 0 0 1-.394.485A.82.82 0 0 1 0 0m-.061-1.251a.5.5 0 0 0-.261.316.5.5 0 0 0 .054.41.56.56 0 0 0 .344.26q.219.066.426-.043a.5.5 0 0 0 .26-.317.5.5 0 0 0-.052-.404.55.55 0 0 0-.344-.265.55.55 0 0 0-.427.043M-.001 0H0Z" style="fill:#fff;fill-opacity:1;fill-rule:nonzero;stroke:none;stroke-width:.403645" transform="matrix(3.30323 0 0 -3.30323 197.117 224.911)"/></g><g style="stroke-width:.403645"><path d="M0 0c-.619.328-1.01.806-1.195 1.461-.186.654-.103 1.267.252 1.874A2.55 2.55 0 0 0 .798 4.58v.281a3 3 0 0 1-.266-.063 2.81 2.81 0 0 1-1.709-1.324 2.64 2.64 0 0 1-.387-1.355q0-.364.106-.733C-1.255.665-.805.118-.126-.243q.45-.236.924-.305v.275Q.395-.207 0 0" style="fill:#fff;fill-opacity:1;fill-rule:nonzero;stroke:none;stroke-width:.403645" transform="matrix(3.30323 0 0 -3.30323 198.829 217.118)"/></g><g style="stroke-width:.403645"><path d="M0 0a.82.82 0 0 1 .63-.065.82.82 0 0 1 .577.553H.912L.899.463A.55.55 0 0 0 .556.199a.55.55 0 0 0-.428.044.5.5 0 0 0-.233.245h-.291V.484A.77.77 0 0 1 0 0" style="fill:#fff;fill-opacity:1;fill-rule:nonzero;stroke:none;stroke-width:.403645" transform="matrix(3.30323 0 0 -3.30323 188.097 200.173)"/></g><g style="stroke-width:.403645"><path d="M0 0a.8.8 0 0 1-.497-.384.78.78 0 0 1-.08-.615.77.77 0 0 1 .392-.488.8.8 0 0 1 .625-.063.82.82 0 0 1 .506.392.77.77 0 0 1 .077.618.76.76 0 0 1-.388.479A.83.83 0 0 1 0 0m-.058-1.245a.5.5 0 0 0-.257.321.5.5 0 0 0 .054.403q.113.193.336.256h.001a.55.55 0 0 0 .431-.038.5.5 0 0 0 .254-.311.5.5 0 0 0-.052-.408.54.54 0 0 0-.343-.263.55.55 0 0 0-.424.04" style="fill:#fff;fill-opacity:1;fill-rule:nonzero;stroke:none;stroke-width:.403645" transform="matrix(3.30323 0 0 -3.30323 190.208 220.992)"/></g><g style="stroke-width:.403645"><path d="M0 0a.83.83 0 0 1-.499-.384.77.77 0 0 1-.077-.624.76.76 0 0 1 .39-.48.81.81 0 0 1 .625-.062.83.83 0 0 1 .505.386.76.76 0 0 1 .081.614.78.78 0 0 1-.39.489A.83.83 0 0 1 0 0m.506-.303a.5.5 0 0 0 .256-.322.49.49 0 0 0-.052-.4.56.56 0 0 0-.346-.26.54.54 0 0 0-.423.041.49.49 0 0 0-.255.311.502.502 0 0 0 .051.41q.114.194.338.258a.55.55 0 0 0 .431-.038" style="fill:#fff;fill-opacity:1;fill-rule:nonzero;stroke:none;stroke-width:.403645" transform="matrix(3.30323 0 0 -3.30323 184.913 202.257)"/></g><g style="stroke-width:.403645"><path d="M0 0q-.476-.137-.726-.564A1.12 1.12 0 0 1-.85-1.46c.091-.315.284-.552.577-.702q.437-.228.911-.093.485.14.736.563.252.43.121.901a1.1 1.1 0 0 1-.571.698A1.2 1.2 0 0 1 0 0m.795-.336a.83.83 0 0 0 .437-.529.84.84 0 0 0-.093-.687.94.94 0 0 0-.576-.438.92.92 0 0 0-.71.07.83.83 0 0 0-.439.534 1 1 0 0 0-.034.238q0 .224.129.444a.91.91 0 0 0 .566.439c.255.074.492.05.72-.071" style="fill:#fff;fill-opacity:1;fill-rule:nonzero;stroke:none;stroke-width:.403645" transform="matrix(3.30323 0 0 -3.30323 184.922 211.118)"/></g><g style="stroke-width:.403645"><path d="M0 0v.219a2.3 2.3 0 0 1-.902-.296 1.6 1.6 0 0 1-.579.817c-.334.249-.835.47-1.528.675-.41.122-.843.222-1.291.303-.441.078-.935.145-1.509.203l-.106-.025-.754-.507-.263-.16-.384-.262-.038-.045-.287-.616v-.629c.303.653.523 1.127.529 1.143l.352.239.261.159.585.393-1.727-3.984v-.668l2.045 4.718q.688-.075 1.237-.173c.434-.077.857-.176 1.254-.293.651-.19 1.134-.404 1.436-.63.292-.218.47-.485.549-.809l-2.193-4.681c-1.346.951-3.366 1.251-4.328 1.342v-.223c.981-.098 3.043-.413 4.299-1.389l.11-.031c.019.003 1.502.119 3.232-.557v.25c-1.399.527-2.606.551-3.055.535L-.866-.31c.25.17.542.273.866.31m-2.696-6.052q-.425-.102-.944.052c-.339.1-.59.249-.744.448l-.076.046-3.181.781v-.228l3.07-.754c.188-.218.463-.389.836-.498q.117-.034.23-.055h1.49c-.357.123-.587.204-.587.204z" style="fill:#fff;fill-opacity:1;fill-rule:nonzero;stroke:none;stroke-width:.403645" transform="matrix(3.30323 0 0 -3.30323 145.617 214.866)"/></g><g style="stroke-width:.403645"><path d="M0 0v3.81h-18.449v3.311h-5.119V3.81h-18.449V0h7.678v-19.152h-6.465v-21.494h5.119v17.685h5.344l9.353-2.979 9.618 2.979h5.039v-17.685h5.118v21.494h-6.465V0Zm-12.796-19.178-8.192-2.484-8.234 2.484V0h16.426z" style="fill:#00467e;fill-opacity:1;fill-rule:nonzero;stroke:none;stroke-width:.403645" transform="matrix(3.30323 0 0 -3.30323 230.064 101.286)"/></g><g style="stroke-width:.403645"><path d="m0 0 4.39 6.672L-8.193-.757l7.066-4.555-5.268-7.975L7.087-4.981z" style="fill:#e72510;fill-opacity:1;fill-rule:nonzero;stroke:none;stroke-width:.403645" transform="matrix(3.30323 0 0 -3.30323 163.195 124.466)"/></g><g style="stroke-width:.403645"><path d="M0 0q-.646.387-.894 1.391-.088.355-.057.699.03.345.188.645.15.305.414.552.264.246.638.404.183.082.468.174a9 9 0 0 0 .598.17q.313.085.616.145.304.061.539.076.44.037.81-.069.37-.103.647-.317a1.97 1.97 0 0 0 .743-1.135 2.2 2.2 0 0 0-.143-1.47 1.9 1.9 0 0 0-.401-.559A1.5 1.5 0 0 0 3.61.361l-.234.949a1 1 0 0 1 .508.478q.174.336.073.746-.106.423-.472.651-.368.229-.958.154a6 6 0 0 1-.417-.07 11 11 0 0 1-.488-.11 9 9 0 0 1-.477-.133A5 5 0 0 1 .782 2.9q-.511-.192-.775-.51-.265-.319-.141-.827.138-.551.508-.751.371-.195.931-.058l.361.089-.254 1.032.709.176.483-1.954-.757-.187Q.646-.387 0 0" style="fill:#00467e;fill-opacity:1;fill-rule:nonzero;stroke:none;stroke-width:.403645" transform="matrix(3.30323 0 0 -3.30323 26.36 199.199)"/></g><g style="stroke-width:.403645"><path d="M0 0a22 22 0 0 0-.931-.335 2.2 2.2 0 0 0-.784-.116 1.9 1.9 0 0 0-.712.168q-.33.151-.585.433-.256.283-.409.684a2.1 2.1 0 0 0-.147.745q-.007.378.125.724.132.343.404.626.273.281.688.456a22 22 0 0 0 1.833.704 1.95 1.95 0 0 0 1.515-.081 2.1 2.1 0 0 0 .596-.445 2 2 0 0 0 .535-1.401A2 2 0 0 0 1.547.819 2.2 2.2 0 0 0 .902.368 22 22 0 0 0 0 0m-.766.709q.227.078.456.167.23.087.449.176.219.086.387.16.212.095.39.24.177.144.29.321a.98.98 0 0 1 .062.862q-.172.447-.588.588t-.919-.022a9 9 0 0 1-.423-.143q-.241-.09-.484-.182-.242-.093-.458-.181a5 5 0 0 1-.342-.149q-.489-.22-.705-.599-.215-.38-.041-.834.183-.478.569-.588.383-.107.955.051.177.051.402.133" style="fill:#00467e;fill-opacity:1;fill-rule:nonzero;stroke:none;stroke-width:.403645" transform="matrix(3.30323 0 0 -3.30323 39.857 213.989)"/></g><g style="stroke-width:.403645"><path d="m0 0 1.962 3.438a5 5 0 0 0 .374.58l-.333-.197q-.152-.09-.287-.164l-2.858-1.548-.453.836 4.924 2.667.416-.767-1.946-3.454A16 16 0 0 0 1.44.812q.157.11.292.186.135.077.277.154l2.889 1.565.448-.829L.423-.779Z" style="fill:#00467e;fill-opacity:1;fill-rule:nonzero;stroke:none;stroke-width:.403645" transform="matrix(3.30323 0 0 -3.30323 38.424 231.199)"/></g><g style="stroke-width:.403645"><path d="M0 0q-.745.118-1.35.952a2.1 2.1 0 0 0-.315.625q-.1.33-.066.665.024.338.178.664.153.327.441.613.14.142.37.334.23.19.492.379.258.194.517.364.26.169.472.27.394.197.777.239.381.042.72-.052a2 2 0 0 0 1.114-.771 2.197 2.197 0 0 0 .417-1.412 1.9 1.9 0 0 0-.164-.666 1.5 1.5 0 0 0-.387-.524l-.572.789q.258.255.293.631.036.375-.212.715-.255.353-.682.425-.426.075-.946-.214a5 5 0 0 1-.36-.219 12 12 0 0 1-.805-.584 5 5 0 0 1-.291-.252q-.402-.367-.528-.761-.126-.393.178-.814.333-.459.752-.504.419-.047.886.292l.303.216-.623.859.594.427L2.38 1.062 1.748.605Q.744-.116 0 0" style="fill:#00467e;fill-opacity:1;fill-rule:nonzero;stroke:none;stroke-width:.403645" transform="matrix(3.30323 0 0 -3.30323 50.357 246.228)"/></g><g style="stroke-width:.403645"><path d="M0 0a1.55 1.55 0 0 0-.679-.101 1.4 1.4 0 0 0-.626.19 2.2 2.2 0 0 0-.552.454 1.7 1.7 0 0 0-.318.514 1.499 1.499 0 0 0 .015 1.145q.119.28.375.5l.623-.698a.88.88 0 0 1-.246-.47q-.045-.261.171-.503A.69.69 0 0 1-.668.79q.34.015.775.405l2.797 2.497.637-.714L.708.448A2.2 2.2 0 0 0 0 0" style="fill:#00467e;fill-opacity:1;fill-rule:nonzero;stroke:none;stroke-width:.403645" transform="matrix(3.30323 0 0 -3.30323 60.486 255.353)"/></g><g style="stroke-width:.403645"><path d="M0 0a1.8 1.8 0 0 0-.728-.163 1.9 1.9 0 0 0-.75.133q-.372.144-.696.434a2.3 2.3 0 0 0-.511.648 1.9 1.9 0 0 0-.218.732 1.8 1.8 0 0 0 .087.739q.122.37.404.683L.104 6.015l.718-.644-2.488-2.776q-.367-.409-.363-.842.004-.434.376-.768.377-.337.811-.297.433.042.8.451l2.488 2.776.707-.634L.637.475Q.355.16 0 0" style="fill:#00467e;fill-opacity:1;fill-rule:nonzero;stroke:none;stroke-width:.403645" transform="matrix(3.30323 0 0 -3.30323 73.356 267.066)"/></g><g style="stroke-width:.403645"><path d="m0 0 1.756 5.317.902-.297L.902-.298Z" style="fill:#00467e;fill-opacity:1;fill-rule:nonzero;stroke:none;stroke-width:.403645" transform="matrix(3.30323 0 0 -3.30323 114.424 293.696)"/></g><g style="stroke-width:.403645"><path d="M0 0a1.4 1.4 0 0 0-.521-.409 1.8 1.8 0 0 0-.69-.18 2.8 2.8 0 0 0-.824.078q-.39.095-.7.28a1.9 1.9 0 0 0-.511.436 1.4 1.4 0 0 0-.276.554q-.076.304.001.625l1.019-.243a.8.8 0 0 1 .121-.558q.163-.255.594-.357.479-.116.76.079a.88.88 0 0 1 .365.541q.083.347-.053.593a.98.98 0 0 1-.434.396l-.648.314a2.1 2.1 0 0 0-.895.779 1.3 1.3 0 0 0-.176 1.03 1.57 1.57 0 0 0 .773 1.022q.297.154.672.199.376.042.814-.062a1.9 1.9 0 0 0 .606-.26q.278-.18.476-.417a1.7 1.7 0 0 0 .288-.52q.092-.278.042-.549l-.958.23a.83.83 0 0 1-.178.479.82.82 0 0 1-.487.308q-.451.107-.73-.061a.8.8 0 0 1-.363-.516.74.74 0 0 1 .056-.523q.123-.244.473-.413l.625-.315q.606-.31.916-.769.31-.457.145-1.146A1.6 1.6 0 0 0 0 0" style="fill:#00467e;fill-opacity:1;fill-rule:nonzero;stroke:none;stroke-width:.403645" transform="matrix(3.30323 0 0 -3.30323 133.603 295.973)"/></g><g style="stroke-width:.403645"><path d="m0 0-.599-4.773-.942.118.599 4.773-1.508.19.098.782L1.606.594l-.098-.782Z" style="fill:#00467e;fill-opacity:1;fill-rule:nonzero;stroke:none;stroke-width:.403645" transform="matrix(3.30323 0 0 -3.30323 145.98 284.589)"/></g><g style="stroke-width:.403645"><path d="m0 0-.68 2.417-2.052-.576.68-2.418-.921-.26-1.516 5.392.922.258.626-2.227 2.051.576-.626 2.229.921.258L.92.259z" style="fill:#00467e;fill-opacity:1;fill-rule:nonzero;stroke:none;stroke-width:.403645" transform="matrix(3.30323 0 0 -3.30323 201.445 295.108)"/></g><g style="stroke-width:.403645"><path d="m0 0-2.014 5.225.887.341L.886.342Z" style="fill:#00467e;fill-opacity:1;fill-rule:nonzero;stroke:none;stroke-width:.403645" transform="matrix(3.30323 0 0 -3.30323 209.016 292.496)"/></g><g style="stroke-width:.403645"><path d="M0 0q-.24-.714-1.168-1.171a2.1 2.1 0 0 0-.671-.204 1.7 1.7 0 0 0-.67.046q-.33.08-.628.287a2.2 2.2 0 0 0-.531.537 5 5 0 0 0-.27.421q-.15.258-.293.548-.15.287-.273.57-.125.285-.19.512-.129.421-.106.805.022.382.172.7.147.322.39.567.245.246.559.402.362.177.741.215.382.038.727-.043.346-.08.632-.271.287-.193.456-.471l-.878-.431a1.034 1.034 0 0 1-1.32.306 1.03 1.03 0 0 1-.535-.599q-.144-.409.054-.969.059-.166.158-.393.1-.225.211-.453A8 8 0 0 1-3 .146q.295-.458.665-.65.369-.19.835.039.511.252.625.656.115.407-.14.923l-.166.334-.952-.469-.323.657 1.805.887.345-.7Q.242.714 0 0" style="fill:#00467e;fill-opacity:1;fill-rule:nonzero;stroke:none;stroke-width:.403645" transform="matrix(3.30323 0 0 -3.30323 225.893 283.299)"/></g><g style="stroke-width:.403645"><path d="m0 0-1.386 2.094L-3.163.918l1.385-2.094-.798-.529-3.089 4.67.798.528 1.277-1.931 1.778 1.177-1.278 1.93.798.529L.798.528z" style="fill:#00467e;fill-opacity:1;fill-rule:nonzero;stroke:none;stroke-width:.403645" transform="matrix(3.30323 0 0 -3.30323 240.393 276.066)"/></g><g style="stroke-width:.403645"><path d="M0 0q.105-.325.05-.661a1.8 1.8 0 0 0-.235-.673 2.8 2.8 0 0 0-.522-.642 2.5 2.5 0 0 0-.622-.425 1.9 1.9 0 0 0-.647-.182 1.4 1.4 0 0 0-.614.079q-.295.107-.519.35l.77.711a.8.8 0 0 1 .529-.21q.303-.007.629.294.362.334.357.674a.88.88 0 0 1-.248.606q-.241.263-.523.286a.97.97 0 0 1-.571-.139l-.621-.364a2.1 2.1 0 0 0-1.145-.31 1.31 1.31 0 0 0-.956.427 1.58 1.58 0 0 0-.421 1.212q.039.333.211.668.173.338.503.644.248.228.554.358t.613.163q.308.028.592-.052.282-.076.479-.269l-.723-.668a.83.83 0 0 1-.498.118.83.83 0 0 1-.527-.232q-.34-.315-.356-.642a.8.8 0 0 1 .228-.589.75.75 0 0 1 .465-.244q.27-.032.607.162l.611.346q.597.33 1.148.333.553.002 1.035-.52Q-.105.326 0 0" style="fill:#00467e;fill-opacity:1;fill-rule:nonzero;stroke:none;stroke-width:.403645" transform="matrix(3.30323 0 0 -3.30323 257.756 257.86)"/></g><g style="stroke-width:.403645"><path d="M0 0q.12-.318.117-.667a2 2 0 0 0-.139-.707 2.3 2.3 0 0 0-.411-.676 2.2 2.2 0 0 0-.484-.423 1.7 1.7 0 0 0-.584-.236 1.8 1.8 0 0 0-.674-.013 2.2 2.2 0 0 0-.737.271 4 4 0 0 0-.487.313 9 9 0 0 0-1.043.901 4 4 0 0 0-.384.443 2.1 2.1 0 0 0-.367.723q-.095.36-.069.691.024.33.149.609.122.28.303.487.531.618 1.231.731t1.343-.283l-.634-.736a.93.93 0 0 1-.679.158.98.98 0 0 1-.647-.353q-.372-.43-.166-.98.206-.548 1.027-1.254.864-.744 1.408-.85.546-.105.944.358a1 1 0 0 1 .241.637.92.92 0 0 1-.265.673l.643.747Q-.123.318 0 0" style="fill:#00467e;fill-opacity:1;fill-rule:nonzero;stroke:none;stroke-width:.403645" transform="matrix(3.30323 0 0 -3.30323 268.414 245.525)"/></g><g style="stroke-width:.403645"><path d="m0 0-2.092 1.389-1.18-1.777 2.093-1.388-.529-.797L-6.374.523l.53.797L-3.916.041l1.179 1.775-1.928 1.281.529.797L.528.796z" style="fill:#00467e;fill-opacity:1;fill-rule:nonzero;stroke:none;stroke-width:.403645" transform="matrix(3.30323 0 0 -3.30323 279.076 235.482)"/></g><g style="stroke-width:.403645"><path d="M0 0q.438-.217.877-.457a2.2 2.2 0 0 0 .617-.497 1.796 1.796 0 0 0 .438-1.361 2.2 2.2 0 0 0-.224-.764 2.2 2.2 0 0 0-.448-.614 1.9 1.9 0 0 0-.616-.398 1.8 1.8 0 0 0-.734-.128 2 2 0 0 0-.802.196 23 23 0 0 0-1.76.868 2 2 0 0 0-.618.506 1.9 1.9 0 0 0-.351.663q-.105.359-.078.741.028.382.203.735.177.359.464.607a2 2 0 0 0 1.38.483A2.2 2.2 0 0 0-.883.413Q-.439.216 0 0m-.001-1.043q-.211.111-.432.221l-.433.211q-.214.101-.381.175-.215.091-.441.124a1.3 1.3 0 0 1-.434-.005.98.98 0 0 1-.674-.538q-.212-.43-.033-.831.177-.402.638-.661.165-.096.394-.213.228-.118.461-.232.234-.116.442-.215.211-.1.343-.149.492-.212.918-.113.425.101.641.535.226.461.046.817-.181.356-.686.668a8 8 0 0 1-.369.206" style="fill:#00467e;fill-opacity:1;fill-rule:nonzero;stroke:none;stroke-width:.403645" transform="matrix(3.30323 0 0 -3.30323 280.69 212.96)"/></g><g style="stroke-width:.403645"><path d="M0 0q.462-.162.926-.345.391-.159.675-.417.282-.259.435-.588.155-.329.167-.71a2.2 2.2 0 0 0-.128-.785 2.2 2.2 0 0 0-.369-.665 1.851 1.851 0 0 0-1.275-.689 2.1 2.1 0 0 0-.82.095 24 24 0 0 0-1.855.646 2 2 0 0 0-.674.425 1.9 1.9 0 0 0-.43.615 2.05 2.05 0 0 0-.059 1.48q.132.379.387.659.252.28.586.447.335.168.723.204.389.035.784-.072Q-.462.16 0 0m.128-1.035q-.225.085-.457.165-.232.082-.456.156-.223.073-.399.128-.224.063-.453.066a1.3 1.3 0 0 1-.43-.057 1 1 0 0 1-.355-.219 1 1 0 0 1-.247-.398q-.157-.453.069-.829.227-.376.715-.577.176-.075.417-.163l.487-.175.466-.157q.22-.074.359-.106.513-.148.924.002.41.15.57.61.168.484-.055.817-.225.33-.764.578-.168.073-.391.159" style="fill:#00467e;fill-opacity:1;fill-rule:nonzero;stroke:none;stroke-width:.403645" transform="matrix(3.30323 0 0 -3.30323 286.156 197.796)"/></g><g style="stroke-width:.403645"><path d="m0 0-5.467 1.213.205.927 4.697-1.041.57 2.569.77-.172z" style="fill:#00467e;fill-opacity:1;fill-rule:nonzero;stroke:none;stroke-width:.403645" transform="matrix(3.30323 0 0 -3.30323 296.002 196.499)"/></g><g style="stroke-width:.403645"><path d="m0 0 1.683 2.764.185.299c.066.102.231.344.231.344L-.437 1.935l-.546.333s.133 2.875.152 2.939l-.194-.338q-.09-.155-.172-.287L-2.908 1.77l-.806.49 2.912 4.783.967-.589-.259-3.337 2.849 1.761.962-.585L.805-.491Z" style="fill:#00467e;fill-opacity:1;fill-rule:nonzero;stroke:none;stroke-width:.403645" transform="matrix(3.30323 0 0 -3.30323 92.12 284.073)"/></g><g style="stroke-width:.403645"><path d="m0 0 2.208 5.146 3.336-1.432-.311-.723L2.77 4.047l-.627-1.461 2.456-1.053-.313-.731L1.83 1.855 1.183.35 3.646-.707l-.31-.725Z" style="fill:#00467e;fill-opacity:1;fill-rule:nonzero;stroke:none;stroke-width:.403645" transform="matrix(3.30323 0 0 -3.30323 99.545 287.84)"/></g><g style="stroke-width:.403645"><path d="m0 0 .109 5.598 3.629-.07-.015-.789-2.68.053-.031-1.589 2.672-.052-.015-.795-2.672.052L.964.769l2.68-.052-.015-.788Z" style="fill:#00467e;fill-opacity:1;fill-rule:nonzero;stroke:none;stroke-width:.403645" transform="matrix(3.30323 0 0 -3.30323 152.313 301.031)"/></g><g style="stroke-width:.403645"><path d="m0 0-1.456 2.2-.803-.076.221-2.318-.952-.091-.531 5.575 2.171.206q.399.038.74-.056.34-.095.594-.297a1.62 1.62 0 0 0 .603-1.137 1.4 1.4 0 0 0-.265-1.007c-.287-.387-.844-.561-.844-.561L1.036.099Zm-.672 4.529a.91.91 0 0 1-.673.177l-1.149-.11.167-1.758 1.148.11q.4.038.629.3.23.262.191.668-.038.399-.313.613" style="fill:#00467e;fill-opacity:1;fill-rule:nonzero;stroke:none;stroke-width:.403645" transform="matrix(3.30323 0 0 -3.30323 178.377 300.121)"/></g><g style="stroke-width:.403645"><path d="m0 0-5.932 2.579-.55-1.266 5.95-2.586-2.517-5.789 1.383-.601L.819-1.948C1.461-.472 0 0 0 0" style="fill:#00467e;fill-opacity:1;fill-rule:nonzero;stroke:none;stroke-width:.403645" transform="matrix(3.30323 0 0 -3.30323 225.751 28.215)"/></g><g style="stroke-width:.403645"><path d="m0 0 1.626 3.739-1.383.602-1.626-3.74-2.543 1.106-.551-1.266 8.327-3.62.55 1.266Z" style="fill:#00467e;fill-opacity:1;fill-rule:nonzero;stroke:none;stroke-width:.403645" transform="matrix(3.30323 0 0 -3.30323 207.556 47.405)"/></g><g style="stroke-width:.403645"><path d="m0 0-2.347 6.278-1.294-.483 2.286-6.113-6.211-2.323.527-1.412 6.322 2.364C.545-1.218 0 0 0 0" style="fill:#00467e;fill-opacity:1;fill-rule:nonzero;stroke:none;stroke-width:.403645" transform="matrix(3.30323 0 0 -3.30323 300.67 117.308)"/></g><g style="stroke-width:.403645"><path d="m0 0-3.819-1.429-.399 1.068 3.819 1.427-.528 1.413-3.819-1.427-.506 1.35-1.292-.482 3.179-8.504 1.293.482-1.219 3.261L.528-1.412z" style="fill:#00467e;fill-opacity:1;fill-rule:nonzero;stroke:none;stroke-width:.403645" transform="matrix(3.30323 0 0 -3.30323 286.377 111.595)"/></g><g style="stroke-width:.403645"><path d="m0 0-4.655-6.773 1.138-.782L-1.7-4.911c.198-.179 1.632-1.387-.061-3.851l1.138-.782C1.166-6.94.387-5.277.387-5.277c1.857-.146 3.645 2.506 3.645 2.506l-1.138.782C1.003-4.531-.442-3.548-.68-3.426L1.138-.782z" style="fill:#00467e;fill-opacity:1;fill-rule:nonzero;stroke:none;stroke-width:.403645" transform="matrix(3.30323 0 0 -3.30323 45.383 66.734)"/></g><g style="stroke-width:.403645"><path d="m0 0-5.143-7.483 1.138-.783 2.144 3.12L.31-6.639l.854 1.244-2.171 1.493 2.145 3.12z" style="fill:#00467e;fill-opacity:1;fill-rule:nonzero;stroke:none;stroke-width:.403645" transform="matrix(3.30323 0 0 -3.30323 62.435 76.727)"/></g><g style="stroke-width:.403645"><path d="m0 0-8.968-1.42-.216 1.363 8.968 1.421z" style="fill:#00467e;fill-opacity:1;fill-rule:nonzero;stroke:none;stroke-width:.403645" transform="matrix(3.30323 0 0 -3.30323 157.067 41.12)"/></g><g style="stroke-width:.403645"><path d="m0 0-.112.708-1.49-.235.112-.709s.05-3.082-3-3.805l.216-1.364C-1.273-4.93-.4-2.43-.4-2.43c1.41-2.316 4.638-1.628 4.638-1.628l-.216 1.365C.919-3.186 0 0 0 0" style="fill:#00467e;fill-opacity:1;fill-rule:nonzero;stroke:none;stroke-width:.403645" transform="matrix(3.30323 0 0 -3.30323 140.485 16.36)"/></g><g style="stroke-width:.403645"><path d="m0 0-1.18-.955-1.91 2.358-1.172-.949 6.256-7.725 1.172.949-3.477 4.294 1.18.955z" style="fill:#00467e;fill-opacity:1;fill-rule:nonzero;stroke:none;stroke-width:.403645" transform="matrix(3.30323 0 0 -3.30323 86.19 45.27)"/></g><g style="stroke-width:.403645"><path d="m0 0 1.873 1.518 3.452-4.112-1.874-1.517Zm-2.041.123L2.353-5.15c.913-1.129 1.983-.021 1.983-.021l3.03 2.454-5.185 6.252z" style="fill:#00467e;fill-opacity:1;fill-rule:nonzero;stroke:none;stroke-width:.403645" transform="matrix(3.30323 0 0 -3.30323 60.898 58.718)"/></g><g style="stroke-width:.403645"><path d="m0 0-.46-3.745-1.287.158-.168-1.37 1.287-.158-.583-4.752 1.496-.183L1.497-.184z" style="fill:#00467e;fill-opacity:1;fill-rule:nonzero;stroke:none;stroke-width:.403645" transform="matrix(3.30323 0 0 -3.30323 187.764 15.218)"/></g><g style="stroke-width:.403645"><path d="m0 0 .168 1.37-5.338.655-.929-7.562c-.178-1.447 1.363-1.441 1.363-1.441l3.822-.469.168 1.371-3.842.471.288 2.344 3.837-.47.168 1.37-3.837.47.29 2.364z" style="fill:#00467e;fill-opacity:1;fill-rule:nonzero;stroke:none;stroke-width:.403645" transform="matrix(3.30323 0 0 -3.30323 181.372 19.073)"/></g><g style="stroke-width:.403645"><path d="m0 0-3.99 5.198-1.095-.84L-1.203-.7l-2.006-1.539.918-1.197 2.099 1.611C.895-.991 0 0 0 0" style="fill:#00467e;fill-opacity:1;fill-rule:nonzero;stroke:none;stroke-width:.403645" transform="matrix(3.30323 0 0 -3.30323 267.86 91.402)"/></g><g style="stroke-width:.403645"><path d="m0 0-.773 1.008 1.194.916-.918 1.196L-4.396.128l.918-1.195 1.61 1.234.773-1.007z" style="fill:#00467e;fill-opacity:1;fill-rule:nonzero;stroke:none;stroke-width:.403645" transform="matrix(3.30323 0 0 -3.30323 284.951 89.118)"/></g><g style="stroke-width:.403645"><path d="m0 0-.858-.658L-2.119.986l-1.096-.84L.227-4.339l1.095.84L.06-1.855l.858.658z" style="fill:#00467e;fill-opacity:1;fill-rule:nonzero;stroke:none;stroke-width:.403645" transform="matrix(3.30323 0 0 -3.30323 276.161 63.705)"/></g><g style="stroke-width:.403645"><path d="M0 0a1.117 1.117 0 1 1-1.772-1.359A1.117 1.117 0 1 1 0 0m.707-2.756a2.615 2.615 0 0 0-3.666.486 2.616 2.616 0 0 0 .48 3.666A2.617 2.617 0 0 0 .707-2.756" style="fill:#00467e;fill-opacity:1;fill-rule:nonzero;stroke:none;stroke-width:.403645" transform="matrix(3.30323 0 0 -3.30323 270.292 71.347)"/></g><g style="stroke-width:.403645"><path d="m0 0-7.155 5.59.85 1.089L.85 1.088Z" style="fill:#00467e;fill-opacity:1;fill-rule:nonzero;stroke:none;stroke-width:.403645" transform="matrix(3.30323 0 0 -3.30323 255.124 66.66)"/></g><g style="stroke-width:.403645"><path d="m0 0 .85 1.088-6.298 4.921-1.317-1.686c-1.001-1.282.305-2.092.305-2.092l5.094-3.979.85 1.087-5.11 3.992.517.661z" style="fill:#00467e;fill-opacity:1;fill-rule:nonzero;stroke:none;stroke-width:.403645" transform="matrix(3.30323 0 0 -3.30323 261.824 55.17)"/></g><g style="stroke-width:.403645"><path d="M0 0a2.875 2.875 0 0 0-.498 4.032A2.876 2.876 0 0 0 4.034.491 2.88 2.88 0 0 0 0 0m2.628 3.362a1.4 1.4 0 0 1-1.962-.238A1.4 1.4 0 0 1 2.87 1.401a1.4 1.4 0 0 1-.242 1.961" style="fill:#00467e;fill-opacity:1;fill-rule:nonzero;stroke:none;stroke-width:.403645" transform="matrix(3.30323 0 0 -3.30323 231.358 72.753)"/></g><g style="stroke-width:.403645"><path d="m0 0-2.059-6.155 1.309-.439L1.316-.419l2.82-.944.479 1.429-2.932.982C.392 1.479 0 0 0 0" style="fill:#00467e;fill-opacity:1;fill-rule:nonzero;stroke:none;stroke-width:.403645" transform="matrix(3.30323 0 0 -3.30323 23.15 105.218)"/></g><g style="stroke-width:.403645"><path d="m0 0 1.673-.56L.545-3.929l1.309-.437 2.881 8.609-1.309.439L2.151.871l-1.672.56Z" style="fill:#00467e;fill-opacity:1;fill-rule:nonzero;stroke:none;stroke-width:.403645" transform="matrix(3.30323 0 0 -3.30323 26.478 118.434)"/></g><g style="stroke-width:.403645"><path d="M0 0a2.876 2.876 0 0 0-3.636-1.815 2.875 2.875 0 0 0 1.825 5.453A2.876 2.876 0 0 0 0 0m-4.047 1.354a1.4 1.4 0 0 1 .88-1.769 1.4 1.4 0 0 1 1.768.883 1.4 1.4 0 0 1-.881 1.769 1.397 1.397 0 0 1-1.767-.883" style="fill:#00467e;fill-opacity:1;fill-rule:nonzero;stroke:none;stroke-width:.403645" transform="matrix(3.30323 0 0 -3.30323 55.793 124.805)"/></g><g style="stroke-width:.403645"><path d="m0 0 1.377.612L5.42-8.469l-1.377-.612Z" style="fill:#00467e;fill-opacity:1;fill-rule:nonzero;stroke:none;stroke-width:.403645" transform="matrix(3.30323 0 0 -3.30323 107.146 21.718)"/></g><g style="stroke-width:.403645"><path d="M0 0a3.444 3.444 0 0 0-4.543 1.74 3.444 3.444 0 0 0 1.747 4.54 3.444 3.444 0 0 0 4.543-1.74A3.444 3.444 0 0 0 0 0m-2.196 4.932a1.966 1.966 0 0 1-.997-2.591 1.965 1.965 0 0 1 3.59 1.598 1.966 1.966 0 0 1-2.593.993" style="fill:#00467e;fill-opacity:1;fill-rule:nonzero;stroke:none;stroke-width:.403645" transform="matrix(3.30323 0 0 -3.30323 103.183 49.86)"/></g></g></svg>